<?xml version="1.0" encoding="UTF-8"?>
<svg width="148px" height="84px" viewBox="0 0 148 84" version="1.1" xmlns="http://www.w3.org/2000/svg" xmlns:xlink="http://www.w3.org/1999/xlink">
    <!-- Generator: Sketch 59 (86127) - https://sketch.com -->
    <title>logo_blue</title>
    <desc>Created with Sketch.</desc>
    <g id="logo_blue" stroke="none" stroke-width="1" fill="none" fill-rule="evenodd">
        <path d="M80.8415,72.6191 C77.7245,72.6191 75.1875,70.0851 75.1875,66.9691 C75.1875,63.8551 77.7245,61.3151 80.8415,61.3151 C83.9545,61.3151 86.4915,63.8551 86.4915,66.9691 C86.4915,70.0851 83.9545,72.6191 80.8415,72.6191 M80.8415,57.6571 C75.7075,57.6571 71.5315,61.8361 71.5315,66.9691 C71.5315,72.0981 75.7075,76.2771 80.8415,76.2771 C85.9725,76.2771 90.1485,72.0981 90.1485,66.9691 C90.1485,61.8361 85.9725,57.6571 80.8415,57.6571 M45.0765,0.0001 C36.1185,0.0001 28.8325,7.2871 28.8325,16.2441 L28.8325,31.2031 C28.8325,38.1441 23.1845,43.7931 16.2455,43.7931 C9.3015,43.7931 3.6565,38.1441 3.6565,31.2031 L3.6565,23.7231 C3.6565,22.7101 2.8395,21.8951 1.8295,21.8951 C0.8185,21.8951 0.0005,22.7101 0.0005,23.7231 L0.0005,31.2031 C0.0005,40.1621 7.2855,47.4491 16.2455,47.4491 C25.2035,47.4491 32.4885,40.1621 32.4885,31.2031 L32.4885,16.2441 C32.4885,9.3051 38.1355,3.6601 45.0765,3.6601 C52.0175,3.6601 57.6625,9.3051 57.6625,16.2441 L57.6625,23.7231 C57.6625,24.7311 58.4825,25.5521 59.4915,25.5521 C60.5035,25.5521 61.3205,24.7311 61.3205,23.7231 L61.3205,16.2441 C61.3205,7.2871 54.0325,0.0001 45.0765,0.0001 M52.5595,25.5521 C53.5715,25.5521 54.3885,24.7311 54.3885,23.7231 L54.3885,16.2441 C54.3885,11.1111 50.2125,6.9331 45.0795,6.9331 C39.9455,6.9331 35.7715,11.1111 35.7715,16.2441 L35.7715,23.7231 C35.7715,24.7311 36.5885,25.5521 37.5995,25.5521 C38.6095,25.5521 39.4295,24.7311 39.4295,23.7231 L39.4295,16.2441 C39.4295,13.1281 41.9635,10.5941 45.0795,10.5941 C48.1935,10.5941 50.7305,13.1281 50.7305,16.2441 L50.7305,23.7231 C50.7305,24.7311 51.5475,25.5521 52.5595,25.5521 M16.2415,40.5141 C21.3735,40.5141 25.5495,36.3361 25.5495,31.2031 L25.5495,23.7231 C25.5495,22.7101 24.7335,21.8951 23.7215,21.8951 C22.7095,21.8951 21.8925,22.7101 21.8925,23.7231 L21.8925,31.2031 C21.8925,34.3191 19.3585,36.8541 16.2415,36.8541 C13.1285,36.8541 10.5915,34.3191 10.5915,31.2031 L10.5915,23.7231 C10.5915,22.7101 9.7715,21.8951 8.7615,21.8951 C7.7505,21.8951 6.9305,22.7101 6.9305,23.7231 L6.9305,31.2031 C6.9305,36.3361 11.1075,40.5141 16.2415,40.5141 M80.8385,36.8541 C77.7215,36.8541 75.1875,34.3191 75.1875,31.2031 C75.1875,28.0891 77.7215,25.5521 80.8385,25.5521 C83.9515,25.5521 86.4885,28.0891 86.4885,31.2031 C86.4885,34.3191 83.9515,36.8541 80.8385,36.8541 M80.8415,47.4491 C89.7995,47.4491 97.0855,40.1621 97.0855,31.2031 L97.0855,9.2201 C97.0855,8.2051 96.2665,7.3891 95.2585,7.3891 C94.2435,7.3891 93.4285,8.2051 93.4285,9.2201 L93.4285,31.2031 C93.4285,38.1441 87.7815,43.7931 80.8415,43.7931 C73.9005,43.7931 68.2545,38.1441 68.2545,31.2031 C68.2545,24.2631 73.9005,18.6181 80.8415,18.6181 C82.8095,18.6181 84.7425,19.0831 86.4885,19.9571 L86.4885,23.8241 C84.9175,22.6181 82.9625,21.8951 80.8385,21.8951 C75.7035,21.8951 71.5265,26.0691 71.5265,31.2031 C71.5265,36.3361 75.7035,40.5141 80.8385,40.5141 C85.9705,40.5141 90.1465,36.3361 90.1465,31.2031 L90.1465,18.8191 L90.1465,18.7821 L90.1465,9.2201 C90.1465,8.2051 89.3295,7.3891 88.3185,7.3891 C87.3055,7.3891 86.4885,8.2051 86.4885,9.2201 L86.4885,15.9781 C84.6875,15.3101 82.7795,14.9581 80.8415,14.9581 C71.8815,14.9581 64.5945,22.2441 64.5945,31.2031 C64.5945,40.1621 71.8815,47.4491 80.8415,47.4491 M145.4375,43.2451 C144.4275,43.2451 143.6115,44.0611 143.6115,45.0711 C143.6115,52.0141 137.9645,57.6571 131.0235,57.6571 L114.2335,57.6571 L114.2335,81.3861 C114.2335,82.3951 115.0515,83.2121 116.0615,83.2121 C117.0745,83.2121 117.8935,82.3951 117.8935,81.3861 L117.8935,61.3151 L131.0235,61.3151 C139.9805,61.3151 147.2685,54.0331 147.2685,45.0711 C147.2685,44.0611 146.4485,43.2451 145.4375,43.2451 M116.6045,36.8541 C113.4895,36.8541 110.9545,34.3191 110.9545,31.2031 C110.9545,28.0891 113.4895,25.5521 116.6045,25.5521 C119.7195,25.5521 122.2565,28.0891 122.2565,31.2031 C122.2565,34.3191 119.7195,36.8541 116.6045,36.8541 M116.6045,47.4491 C118.6055,47.4491 120.5735,47.0741 122.4185,46.3651 C122.7045,47.0041 123.3415,47.4491 124.0845,47.4491 C125.0945,47.4491 125.9145,46.6291 125.9145,45.6191 L125.9145,31.2031 C125.9145,26.0691 121.7385,21.8951 116.6045,21.8951 C111.4735,21.8951 107.2945,26.0691 107.2945,31.2031 C107.2945,36.3361 111.4735,40.5141 116.6045,40.5141 C118.7305,40.5141 120.6875,39.7881 122.2565,38.5861 L122.2565,42.4481 C120.5115,43.3271 118.5785,43.7931 116.6045,43.7931 C109.6645,43.7931 104.0175,38.1441 104.0175,31.2031 C104.0175,24.2631 109.6645,18.6181 116.6045,18.6181 C123.5455,18.6181 129.1905,24.2631 129.1905,31.2031 L129.1905,45.6191 C129.1905,46.6291 130.0085,47.4491 131.0185,47.4491 C132.0315,47.4491 132.8505,46.6291 132.8505,45.6191 L132.8505,31.2031 C132.8505,22.2441 125.5615,14.9581 116.6045,14.9581 C107.6465,14.9581 100.3615,22.2441 100.3615,31.2031 C100.3615,40.1621 107.6465,47.4491 116.6045,47.4491 M80.8415,79.5551 C73.9005,79.5551 68.2545,73.9091 68.2545,66.9691 C68.2545,60.0281 73.9005,54.3811 80.8415,54.3811 C87.7815,54.3811 93.4285,60.0281 93.4285,66.9691 C93.4285,73.9091 87.7815,79.5551 80.8415,79.5551 M91.0915,54.3811 L131.0235,54.3811 C136.1535,54.3811 140.3315,50.2061 140.3315,45.0711 C140.3315,44.0611 139.5135,43.2451 138.5035,43.2451 C137.4925,43.2451 136.6755,44.0611 136.6755,45.0711 C136.6755,48.1881 134.1385,50.7231 131.0235,50.7231 L80.8415,50.7231 C71.8815,50.7231 64.5945,58.0111 64.5945,66.9691 C64.5945,75.9271 71.8815,83.2121 80.8415,83.2121 C89.7995,83.2121 97.0855,75.9271 97.0855,66.9691 C97.0855,64.9801 96.7085,63.0801 96.0515,61.3151 L107.2945,61.3151 L107.2945,81.3861 C107.2945,82.3951 108.1135,83.2121 109.1265,83.2121 C110.1345,83.2121 110.9545,82.3951 110.9545,81.3861 L110.9545,57.6571 L94.1335,57.6571 C93.2715,56.4311 92.2515,55.3281 91.0915,54.3811 M45.0795,61.3151 C48.1935,61.3151 50.7305,63.8551 50.7305,66.9691 C50.7305,70.0851 48.1935,72.6191 45.0795,72.6191 C41.9635,72.6191 39.4295,70.0851 39.4295,66.9691 C39.4295,63.8551 41.9635,61.3151 45.0795,61.3151 M45.0765,50.7231 C43.1385,50.7231 41.2255,51.0731 39.4295,51.7401 L39.4295,44.9801 C39.4295,43.9701 38.6095,43.1521 37.5995,43.1521 C36.5885,43.1521 35.7715,43.9701 35.7715,44.9801 L35.7715,54.5491 C35.7685,54.5601 35.7715,54.5691 35.7715,54.5771 L35.7715,66.9691 C35.7715,72.0981 39.9455,76.2771 45.0795,76.2771 C50.2125,76.2771 54.3885,72.0981 54.3885,66.9691 C54.3885,61.8361 50.2125,57.6571 45.0795,57.6571 C42.9525,57.6571 40.9975,58.3841 39.4295,59.5901 L39.4295,55.7191 C41.1745,54.8451 43.1045,54.3811 45.0765,54.3811 C52.0175,54.3811 57.6625,60.0281 57.6625,66.9691 C57.6625,73.9091 52.0175,79.5551 45.0765,79.5551 C38.1355,79.5551 32.4885,73.9091 32.4885,66.9691 L32.4885,44.9801 C32.4885,43.9701 31.6725,43.1521 30.6595,43.1521 C29.6495,43.1521 28.8325,43.9701 28.8325,44.9801 L28.8325,66.9691 C28.8325,75.9271 36.1185,83.2121 45.0765,83.2121 C54.0325,83.2121 61.3205,75.9271 61.3205,66.9691 C61.3205,58.0111 54.0325,50.7231 45.0765,50.7231" id="Fill-1" fill="#009CDB"></path>
    </g>
</svg>